<?xml version="1.0" standalone="no"?>
<!DOCTYPE svg PUBLIC "-//W3C//DTD SVG 20010904//EN"
 "http://www.w3.org/TR/2001/REC-SVG-20010904/DTD/svg10.dtd">
<svg version="1.0" xmlns="http://www.w3.org/2000/svg"
 width="768.000000pt" height="486.000000pt" viewBox="0 0 768.000000 486.000000"
 preserveAspectRatio="xMidYMid meet">

<g transform="translate(0.000000,486.000000) scale(0.100000,-0.100000)"
fill="#000000" stroke="none">
<path d="M6805 4370 c-13 -14 -20 -43 -24 -95 l-7 -75 26 0 c24 0 25 2 21 46
-2 31 1 50 10 56 11 7 11 11 2 15 -7 2 -13 16 -13 30 0 22 3 24 26 19 19 -5
25 -3 22 6 -7 21 -43 20 -63 -2z"/>
<path d="M6717 4373 c-4 -3 -7 -12 -7 -20 0 -15 26 -18 34 -4 7 11 -18 33 -27
24z"/>
<path d="M6122 4358 c-25 -25 -14 -57 29 -83 44 -28 50 -58 12 -63 -15 -2 -26
5 -37 25 l-16 28 2 -30 c3 -27 7 -30 41 -33 21 -2 45 2 53 9 23 19 17 56 -13
78 -60 45 -66 57 -36 68 10 4 23 -2 36 -18 l19 -24 -3 25 c-3 21 -10 26 -39
28 -19 2 -41 -3 -48 -10z"/>
<path d="M6568 4361 c10 -6 13 -29 10 -85 l-3 -76 58 0 c55 0 57 1 57 27 l0
27 -16 -22 c-10 -15 -24 -22 -37 -20 -19 3 -22 10 -25 60 -2 32 2 67 8 78 10
18 8 20 -27 20 -25 0 -33 -3 -25 -9z"/>
<path d="M6239 4313 c-2 -12 1 -44 7 -80 5 -33 6 -33 61 -33 53 0 55 1 49 23
-3 12 -6 39 -6 60 0 30 -3 38 -17 35 -12 -2 -16 -15 -17 -53 -1 -37 -5 -50
-16 -50 -11 0 -16 14 -20 50 -4 37 -9 51 -22 53 -10 2 -19 0 -19 -5z"/>
<path d="M6389 4316 c0 0 -1 -27 -2 -59 -2 -55 -1 -57 23 -57 24 0 25 2 21 51
-3 45 -1 50 15 47 15 -3 19 -13 19 -51 0 -46 1 -47 30 -47 17 0 25 3 18 8 -6
4 -13 30 -15 57 l-3 50 -52 1 c-29 1 -53 1 -54 0z"/>
<path d="M6709 4318 c0 -2 -1 -29 -2 -61 -2 -55 -1 -57 23 -57 25 0 25 1 20
57 -4 45 -9 59 -22 61 -10 2 -18 2 -19 0z"/>
<path d="M6866 4298 c-36 -50 -9 -99 52 -97 22 1 29 3 17 6 -54 13 -60 48 -10
57 19 4 35 13 35 19 0 40 -69 51 -94 15z m58 -19 c-3 -5 -14 -9 -25 -9 -17 0
-18 3 -9 21 9 16 14 18 26 9 7 -7 11 -16 8 -21z"/>
<path d="M2480 3895 c7 -8 16 -15 21 -15 5 0 6 7 3 15 -4 8 -13 15 -21 15 -13
0 -13 -3 -3 -15z"/>
<path d="M3446 3895 c-3 -8 -2 -15 3 -15 5 0 14 7 21 15 10 12 10 15 -3 15 -8
0 -17 -7 -21 -15z"/>
<path d="M2070 3770 c0 -73 3 -90 15 -90 10 0 15 11 15 35 0 33 2 35 33 35 38
0 67 25 67 58 0 35 -27 52 -81 52 l-49 0 0 -90z m88 48 c16 -16 -3 -38 -34
-38 -19 0 -24 5 -24 25 0 19 5 25 23 25 13 0 28 -5 35 -12z"/>
<path d="M2232 3773 c2 -55 7 -88 15 -90 7 -3 13 10 15 34 3 36 5 38 40 41 36
3 37 2 40 -35 2 -26 8 -38 18 -38 12 0 16 18 18 88 3 82 2 87 -18 87 -16 0
-20 -6 -20 -36 0 -35 -1 -35 -37 -32 -35 3 -38 6 -41 36 -2 20 -9 32 -18 32
-12 0 -14 -16 -12 -87z"/>
<path d="M2435 3835 c-41 -40 -29 -121 22 -144 70 -32 134 23 119 104 -13 65
-93 88 -141 40z m103 -37 c15 -32 2 -73 -25 -80 -52 -14 -89 42 -58 89 22 33
65 28 83 -9z"/>
<path d="M2610 3770 c0 -73 3 -90 15 -90 12 0 15 13 15 56 0 64 8 63 46 -6 17
-32 34 -50 46 -50 16 0 18 9 18 90 0 72 -3 90 -15 90 -10 0 -15 -15 -17 -57
l-3 -58 -35 58 c-21 35 -42 57 -52 57 -16 0 -18 -11 -18 -90z"/>
<path d="M2813 3836 c-22 -20 -28 -32 -27 -65 2 -73 67 -111 133 -76 27 14 32
21 29 48 -3 29 -6 32 -38 32 -25 0 -36 -5 -38 -17 -3 -14 3 -18 24 -18 21 0
25 -3 17 -11 -15 -15 -59 -15 -78 1 -20 17 -19 64 2 85 15 16 28 16 81 0 16
-6 22 -3 22 8 0 41 -85 49 -127 13z"/>
<path d="M3050 3845 c0 -9 9 -15 25 -15 24 0 25 -2 25 -76 0 -66 2 -75 18 -72
14 3 18 16 20 76 3 69 4 72 27 72 16 0 25 6 25 15 0 12 -14 15 -70 15 -56 0
-70 -3 -70 -15z"/>
<path d="M3210 3770 c0 -73 3 -90 15 -90 11 0 15 11 15 40 0 53 21 53 58 0 15
-21 35 -39 45 -40 23 0 22 9 -7 51 -24 34 -24 36 -5 47 21 14 25 52 7 70 -7 7
-38 12 -70 12 l-58 0 0 -90z m103 53 c13 -12 -15 -33 -44 -33 -22 0 -29 5 -29
20 0 16 7 20 33 20 19 0 37 -3 40 -7z"/>
<path d="M3436 3852 c-3 -5 -16 -38 -29 -73 -13 -35 -28 -72 -32 -81 -11 -28
20 -22 39 7 12 17 25 25 46 25 23 0 33 -6 40 -25 9 -24 40 -36 40 -15 0 6 -14
47 -31 90 -23 60 -35 80 -49 80 -10 0 -21 -4 -24 -8z m39 -74 c6 -25 5 -28
-19 -28 -30 0 -29 -2 -15 39 12 35 24 31 34 -11z"/>
<path d="M3570 3770 c0 -73 3 -90 15 -90 12 0 15 13 15 56 0 64 8 63 47 -6 17
-30 35 -50 46 -50 15 0 17 11 17 90 0 72 -3 90 -15 90 -10 0 -15 -15 -17 -57
l-3 -58 -35 58 c-21 35 -42 57 -52 57 -16 0 -18 -11 -18 -90z"/>
<path d="M3750 3770 c0 -73 3 -90 15 -90 11 0 15 11 15 40 l0 40 40 0 40 0 0
-40 c0 -29 4 -40 15 -40 12 0 15 17 15 90 0 73 -3 90 -15 90 -10 0 -15 -11
-15 -35 0 -34 -1 -35 -40 -35 -39 0 -40 1 -40 35 0 24 -5 35 -15 35 -12 0 -15
-17 -15 -90z"/>
<path d="M3990 3853 c0 -4 12 -44 27 -90 36 -110 51 -110 92 -2 35 92 36 99
17 99 -9 0 -23 -26 -36 -65 -12 -36 -23 -65 -25 -65 -2 0 -13 29 -25 65 -13
39 -27 65 -36 65 -8 0 -14 -3 -14 -7z"/>
<path d="M4170 3770 c0 -73 3 -90 15 -90 12 0 15 17 15 90 0 73 -3 90 -15 90
-12 0 -15 -17 -15 -90z"/>
<path d="M4240 3770 c0 -73 3 -90 15 -90 11 0 15 11 15 40 0 28 4 40 15 40 8
0 29 -18 46 -40 30 -37 59 -52 59 -31 0 4 -11 24 -24 43 -22 34 -23 35 -5 47
21 13 25 51 7 69 -7 7 -38 12 -70 12 l-58 0 0 -90z m105 40 c0 -10 -12 -16
-37 -18 -33 -3 -38 0 -38 18 0 18 5 21 38 18 25 -2 37 -8 37 -18z"/>
<path d="M4420 3790 c0 -81 19 -110 70 -110 51 0 70 29 70 110 0 56 -3 70 -15
70 -12 0 -15 -14 -15 -65 0 -59 -2 -67 -22 -74 -43 -16 -58 3 -58 74 0 51 -3
65 -15 65 -12 0 -15 -14 -15 -70z"/>
<path d="M4618 3849 c-43 -24 -11 -78 55 -94 30 -8 37 -34 10 -36 -29 -2 -48
2 -51 12 -5 12 -42 12 -42 0 0 -17 52 -51 77 -51 13 0 35 11 48 24 34 34 22
66 -31 84 -21 7 -43 17 -48 22 -15 15 24 25 45 12 22 -14 49 -16 49 -4 0 33
-74 53 -112 31z"/>
<path d="M4872 3853 c-18 -7 -42 -57 -42 -88 0 -35 50 -85 85 -85 15 0 37 11
52 26 23 23 24 27 10 36 -12 6 -22 3 -36 -11 -34 -34 -71 -10 -71 45 0 46 22
61 66 45 43 -15 54 -8 29 19 -17 19 -62 26 -93 13z"/>
<path d="M5052 3853 c-23 -9 -44 -64 -38 -98 9 -45 39 -70 88 -70 52 0 78 30
78 90 0 35 -5 48 -26 64 -25 20 -72 26 -102 14z m87 -55 c21 -38 2 -78 -37
-78 -35 0 -52 16 -52 51 0 59 61 78 89 27z"/>
<path d="M5212 3773 c3 -74 6 -88 21 -91 14 -3 17 4 17 37 0 54 21 54 56 1 15
-23 35 -40 45 -40 25 0 24 7 -7 47 l-26 35 21 14 c25 18 27 46 5 68 -10 11
-34 16 -75 16 l-60 0 3 -87z m106 40 c-2 -12 -14 -19 -36 -21 -27 -3 -32 0
-32 17 0 17 6 21 36 21 28 0 35 -3 32 -17z"/>
<path d="M5415 3835 c-32 -31 -34 -91 -5 -123 64 -69 164 -12 146 83 -13 65
-93 88 -141 40z m93 -17 c13 -13 16 -56 6 -82 -4 -10 -18 -16 -40 -16 -28 0
-36 5 -44 25 -22 57 38 113 78 73z"/>
<path d="M5590 3770 c0 -72 3 -90 15 -90 10 0 15 15 17 58 l3 57 35 -57 c21
-34 42 -58 53 -58 15 0 17 11 17 90 0 73 -3 90 -15 90 -11 0 -15 -12 -15 -50
0 -27 -4 -50 -8 -50 -4 0 -21 22 -37 50 -18 29 -37 50 -47 50 -16 0 -18 -11
-18 -90z"/>
<path d="M5792 3779 c-18 -44 -32 -84 -32 -90 0 -19 27 -8 38 17 10 21 18 25
45 22 22 -2 35 -10 42 -25 5 -13 18 -23 28 -23 10 0 17 4 15 8 -1 4 -16 45
-33 90 -24 67 -33 82 -51 82 -17 0 -27 -15 -52 -81z m74 -26 c-2 -3 -15 -3
-29 -1 -25 3 -25 4 -11 38 l15 35 15 -34 c8 -19 12 -36 10 -38z"/>
<path d="M1423 3591 c-1 -14 3 -18 13 -14 16 6 14 25 -2 30 -5 2 -10 -6 -11
-16z"/>
<path d="M2566 3595 c-3 -8 -2 -15 3 -15 5 0 14 7 21 15 10 12 10 15 -3 15 -8
0 -17 -7 -21 -15z"/>
<path d="M3376 3595 c-3 -8 -2 -15 3 -15 5 0 14 7 21 15 10 12 10 15 -3 15 -8
0 -17 -7 -21 -15z"/>
<path d="M4275 3599 c-12 -19 5 -23 22 -6 16 16 16 17 1 17 -9 0 -20 -5 -23
-11z"/>
<path d="M5650 3595 c7 -8 16 -15 21 -15 5 0 6 7 3 15 -4 8 -13 15 -21 15 -13
0 -13 -3 -3 -15z"/>
<path d="M1180 3470 c0 -73 3 -90 15 -90 11 0 15 11 15 40 0 29 4 40 15 40 8
0 27 -18 41 -40 16 -23 35 -40 46 -40 16 0 17 3 7 23 -6 12 -19 30 -27 40 -14
16 -14 19 6 33 12 8 22 24 22 34 0 34 -28 50 -86 50 l-54 0 0 -90z m95 40 c0
-10 -12 -16 -32 -18 -28 -3 -33 0 -33 18 0 18 5 21 33 18 20 -2 32 -8 32 -18z"/>
<path d="M1360 3486 c0 -66 3 -77 22 -90 27 -19 68 -21 92 -3 9 7 20 31 23 54
4 29 11 43 24 46 24 6 27 67 4 67 -17 0 -21 -26 -4 -32 7 -2 5 -9 -5 -17 -14
-12 -16 -10 -16 18 0 24 -4 31 -20 31 -18 0 -20 -7 -20 -69 0 -61 -2 -70 -20
-76 -36 -11 -50 12 -50 81 0 50 -3 64 -15 64 -12 0 -15 -15 -15 -74z"/>
<path d="M1586 3483 c-16 -43 -31 -84 -33 -90 -3 -7 2 -13 12 -13 9 0 19 9 22
20 4 16 14 20 44 20 28 0 41 -5 49 -20 12 -23 45 -28 37 -6 -3 8 -18 49 -33
90 -22 63 -30 76 -48 76 -18 0 -27 -14 -50 -77z m68 -10 c6 -20 4 -23 -18 -23
-29 0 -31 6 -15 47 11 30 19 24 33 -24z"/>
<path d="M1800 3545 c0 -9 9 -15 25 -15 24 0 25 -2 25 -75 0 -68 2 -75 20 -75
18 0 20 7 20 75 0 73 1 75 25 75 16 0 25 6 25 15 0 12 -14 15 -70 15 -56 0
-70 -3 -70 -15z"/>
<path d="M1961 3480 c-17 -43 -31 -84 -31 -90 0 -18 29 -10 35 10 5 15 15 20
45 20 30 0 40 -5 45 -20 3 -11 15 -20 25 -20 17 0 16 6 -11 82 -37 99 -36 98
-59 98 -14 0 -26 -20 -49 -80z m67 0 c11 -29 10 -30 -18 -30 -28 0 -28 1 -18
35 13 39 22 38 36 -5z"/>
<path d="M2110 3513 c21 -33 30 -59 30 -90 0 -36 3 -43 20 -43 17 0 20 7 20
43 0 23 6 51 13 62 50 72 51 75 31 75 -11 0 -28 -15 -40 -36 l-21 -37 -22 37
c-13 21 -31 36 -42 36 -17 0 -16 -5 11 -47z"/>
<path d="M2330 3521 c0 -22 -6 -42 -12 -45 -10 -5 -10 -7 0 -12 6 -3 12 -23
12 -45 l0 -39 50 0 c67 0 100 30 100 90 0 60 -33 90 -100 90 l-50 0 0 -39z
m98 -3 c7 -7 12 -29 12 -50 0 -31 -5 -41 -24 -50 -31 -14 -56 -4 -56 22 0 13
7 20 20 20 11 0 20 5 20 10 0 6 -9 10 -20 10 -15 0 -20 7 -20 25 0 21 5 25 28
25 15 0 33 -5 40 -12z"/>
<path d="M2510 3490 c0 -57 4 -74 20 -90 24 -24 67 -26 98 -4 19 13 22 24 22
90 0 59 -3 74 -15 74 -12 0 -15 -14 -15 -63 0 -81 -26 -110 -64 -71 -11 10
-16 34 -16 75 0 46 -3 59 -15 59 -12 0 -15 -14 -15 -70z"/>
<path d="M2690 3469 c0 -81 2 -90 18 -87 13 2 18 15 20 57 l3 54 33 -54 c21
-36 39 -54 52 -54 17 0 19 9 22 88 3 81 1 87 -17 87 -17 0 -20 -8 -23 -57 l-3
-58 -33 58 c-23 38 -40 57 -53 57 -17 0 -19 -8 -19 -91z"/>
<path d="M2895 3535 c-27 -26 -34 -80 -15 -114 13 -26 64 -45 97 -36 40 10 53
24 53 56 0 26 -3 29 -35 29 -24 0 -35 -5 -35 -15 0 -8 9 -15 20 -15 28 0 25
-17 -5 -24 -55 -14 -92 41 -61 89 19 28 42 32 72 11 14 -10 25 -11 35 -5 12 8
10 13 -10 29 -33 28 -86 26 -116 -5z"/>
<path d="M3160 3540 c-52 -52 -31 -139 36 -156 48 -12 103 32 74 59 -10 9 -14
9 -17 -1 -8 -22 -41 -34 -63 -22 -15 8 -20 21 -20 48 0 57 34 80 69 48 12 -11
21 -12 31 -5 13 8 11 13 -9 29 -30 26 -75 26 -101 0z"/>
<path d="M3363 3543 c-3 -10 -15 -40 -26 -68 -10 -27 -23 -60 -28 -72 -7 -19
-5 -23 10 -23 10 0 21 9 24 20 4 16 14 20 45 20 31 0 41 -4 45 -20 5 -20 37
-29 37 -10 0 6 -14 47 -31 90 -24 62 -35 80 -50 80 -11 0 -22 -8 -26 -17z m42
-65 c7 -25 5 -28 -20 -28 -22 0 -26 3 -20 18 4 9 10 25 12 35 7 23 19 11 28
-25z"/>
<path d="M3524 3537 c-39 -34 -40 -100 -1 -133 36 -31 71 -30 104 2 21 21 23
28 12 35 -9 5 -21 1 -34 -11 -26 -25 -37 -25 -58 -2 -21 23 -22 66 -1 86 20
20 38 20 58 0 11 -10 21 -12 32 -6 14 8 14 11 -7 31 -30 27 -71 27 -105 -2z"/>
<path d="M3680 3470 c0 -72 3 -90 14 -90 10 0 16 13 18 38 3 35 5 37 41 40
l37 3 0 -40 c0 -34 3 -41 20 -41 19 0 20 7 20 90 0 83 -1 90 -20 90 -16 0 -20
-7 -20 -36 0 -35 -1 -35 -37 -32 -35 3 -38 6 -41 36 -2 20 -9 32 -18 32 -11 0
-14 -18 -14 -90z"/>
<path d="M4000 3470 c0 -73 3 -90 15 -90 10 0 15 11 16 33 1 17 4 43 8 57 7
22 10 17 21 -33 18 -76 39 -74 60 8 l15 60 5 -60 c4 -47 9 -61 23 -63 15 -3
17 6 17 87 l0 91 -29 0 c-25 0 -30 -5 -41 -47 -19 -70 -27 -72 -41 -9 -11 52
-14 56 -41 56 l-28 0 0 -90z"/>
<path d="M4232 3479 c-18 -44 -32 -84 -32 -90 0 -18 29 -9 35 11 5 15 15 20
45 20 30 0 40 -5 45 -20 3 -11 15 -20 25 -20 17 0 16 6 -11 82 -36 99 -36 98
-58 98 -13 0 -26 -22 -49 -81z m66 1 c11 -29 10 -30 -18 -30 -28 0 -28 1 -18
35 13 39 22 38 36 -5z"/>
<path d="M4416 3539 c-22 -17 -26 -28 -26 -69 0 -41 4 -52 26 -69 36 -28 70
-26 101 5 21 21 23 28 12 34 -9 6 -20 2 -32 -11 -22 -24 -39 -24 -60 -1 -21
23 -22 66 -1 86 19 20 34 20 60 2 11 -8 26 -11 33 -7 10 6 7 14 -10 30 -29 27
-69 27 -103 0z"/>
<path d="M4570 3470 c0 -72 3 -90 14 -90 10 0 16 13 18 38 3 35 5 37 40 40 36
3 37 2 40 -35 2 -26 8 -38 18 -38 12 0 16 18 18 88 3 82 2 87 -18 87 -16 0
-20 -6 -20 -36 0 -35 -1 -35 -37 -32 -35 3 -38 6 -41 36 -2 20 -9 32 -18 32
-11 0 -14 -18 -14 -90z"/>
<path d="M4820 3470 l0 -90 59 0 c41 0 65 5 75 16 18 18 21 55 5 71 -8 8 -8
17 0 30 7 15 6 25 -5 41 -13 18 -25 22 -75 22 l-59 0 0 -90z m105 40 c0 -10
-12 -16 -32 -18 -28 -3 -33 0 -33 18 0 18 5 21 33 18 20 -2 32 -8 32 -18z m12
-66 c7 -20 -13 -34 -49 -34 -23 0 -28 4 -28 25 0 22 4 25 35 25 23 0 38 -6 42
-16z"/>
<path d="M5026 3483 c-16 -43 -31 -84 -33 -90 -3 -7 2 -13 12 -13 9 0 19 9 22
20 4 16 14 20 44 20 28 0 41 -5 49 -20 12 -23 45 -28 37 -6 -3 8 -18 49 -33
90 -22 63 -30 76 -48 76 -18 0 -27 -14 -50 -77z m68 -10 c6 -20 4 -23 -18 -23
-29 0 -31 6 -15 47 11 30 19 24 33 -24z"/>
<path d="M5190 3470 c0 -73 3 -90 15 -90 12 0 15 13 15 58 l1 57 35 -57 c23
-38 42 -58 55 -58 17 0 19 8 19 90 0 83 -1 90 -20 90 -18 0 -20 -7 -20 -57
l-1 -58 -35 58 c-52 83 -64 77 -64 -33z"/>
<path d="M5440 3470 l0 -90 60 0 c47 0 60 3 60 15 0 11 -12 15 -45 15 l-45 0
0 75 c0 60 -3 75 -15 75 -12 0 -15 -17 -15 -90z"/>
<path d="M5633 3543 c-3 -10 -15 -40 -26 -68 -10 -27 -23 -60 -28 -72 -7 -19
-5 -23 10 -23 10 0 21 9 24 20 4 16 14 20 45 20 32 0 42 -4 47 -20 7 -22 35
-28 34 -7 0 6 -13 46 -28 87 -22 58 -33 76 -50 78 -13 2 -23 -3 -28 -15z m45
-63 c11 -29 10 -30 -18 -30 -28 0 -28 1 -18 35 13 39 22 38 36 -5z"/>
<path d="M5770 3470 c0 -73 3 -90 15 -90 12 0 15 13 15 55 0 63 15 73 24 18
11 -60 16 -73 31 -73 8 0 19 18 25 43 24 92 28 95 29 25 1 -53 4 -68 16 -68
12 0 15 17 15 90 0 89 0 90 -24 90 -21 0 -27 -8 -42 -57 l-17 -58 -19 58 c-17
48 -23 57 -44 57 -24 0 -24 -1 -24 -90z"/>
<path d="M6050 3470 c0 -72 3 -90 15 -90 10 0 15 15 17 58 l3 57 33 -57 c23
-39 40 -58 53 -58 17 0 19 8 19 91 0 81 -2 90 -17 87 -14 -2 -19 -16 -23 -53
l-5 -50 -32 53 c-50 79 -63 71 -63 -38z"/>
<path d="M6263 3548 c-50 -24 -53 -110 -6 -148 31 -24 63 -25 103 -5 23 12 30
22 30 45 0 28 -2 30 -40 30 -29 0 -40 -4 -40 -15 0 -8 9 -15 20 -15 24 0 27
-15 4 -24 -45 -17 -80 19 -72 75 4 33 51 49 75 26 13 -11 23 -13 33 -6 13 8
11 13 -9 29 -25 22 -63 25 -98 8z"/>
<path d="M6446 3483 c-16 -43 -31 -84 -34 -90 -2 -7 3 -13 11 -13 9 0 19 9 22
20 5 16 15 20 47 20 31 0 41 -4 45 -20 3 -11 14 -20 25 -20 11 0 18 4 16 8 -1
4 -16 45 -32 90 -24 67 -33 82 -50 82 -17 0 -27 -15 -50 -77z m74 -29 c0 -2
-11 -4 -25 -4 -28 0 -30 6 -14 47 l11 28 14 -34 c8 -18 14 -35 14 -37z"/>
<path d="M6570 3554 c0 -3 14 -25 30 -49 21 -31 30 -55 30 -84 0 -30 4 -41 15
-41 11 0 15 11 15 38 0 24 10 52 30 82 34 51 36 60 16 60 -8 0 -24 -16 -37
-36 l-22 -36 -20 36 c-12 20 -29 36 -39 36 -10 0 -18 -3 -18 -6z"/>
<path d="M6756 3498 c10 -95 20 -95 30 0 7 59 6 62 -15 62 -21 0 -22 -3 -15
-62z"/>
<path d="M3860 3396 c0 -8 6 -17 13 -19 9 -4 8 -8 -3 -16 -16 -11 -8 -27 9
-16 17 10 14 65 -4 65 -8 0 -15 -6 -15 -14z"/>
<path d="M6750 3395 c0 -8 9 -15 20 -15 11 0 20 7 20 15 0 8 -9 15 -20 15 -11
0 -20 -7 -20 -15z"/>
<path d="M5060 3335 c0 -8 7 -15 15 -15 8 0 15 7 15 15 0 8 -7 15 -15 15 -8 0
-15 -7 -15 -15z"/>
<path d="M1922 3063 l-2 -53 33 1 c29 2 29 2 5 6 -24 4 -27 9 -31 51 l-3 47
-2 -52z"/>
<path d="M2408 3104 c-11 -10 -10 -66 2 -84 5 -8 10 -12 12 -10 7 10 -7 101
-14 94z"/>
<path d="M2478 3100 c-5 -17 3 -90 11 -90 3 0 5 21 4 46 -1 46 -8 65 -15 44z"/>
<path d="M1996 3074 c-5 -14 -4 -15 9 -4 12 10 19 10 27 2 9 -9 8 -12 -2 -12
-13 0 -13 -2 -1 -9 16 -11 6 -31 -16 -31 -9 0 -13 6 -9 15 3 8 1 15 -5 15 -6
0 -9 -8 -7 -17 2 -12 13 -18 31 -19 26 -1 28 1 25 35 -2 28 -8 37 -24 39 -13
2 -24 -4 -28 -14z"/>
<path d="M2071 3045 l2 -40 6 34 c9 49 31 52 32 4 l2 -38 6 34 c9 49 31 53 31
5 0 -28 3 -35 11 -27 6 6 8 24 4 41 -6 28 -9 30 -51 29 l-44 -2 1 -40z"/>
<path d="M2224 3055 c1 -35 4 -40 27 -43 21 -2 27 2 31 21 2 13 1 32 -3 43 -7
17 -8 16 -8 -6 -3 -60 -35 -64 -44 -5 -3 22 -4 19 -3 -10z"/>
<path d="M2322 3081 c-8 -5 -12 -21 -10 -37 4 -41 44 -46 58 -8 16 40 -13 68
-48 45z m36 -34 c2 -19 -1 -27 -13 -27 -19 0 -30 24 -21 46 9 23 31 11 34 -19z"/>
<path d="M2525 3080 c-4 -6 -4 -14 -1 -17 3 -4 6 -1 6 5 0 7 7 12 15 12 8 0
15 -4 15 -10 0 -5 -6 -10 -12 -10 -10 0 -9 -3 1 -9 7 -5 10 -14 7 -20 -11 -17
-26 -13 -26 6 0 12 -3 14 -11 6 -17 -17 -2 -32 29 -31 27 1 28 3 23 37 -6 36
-32 54 -46 31z"/>
<path d="M2596 3075 c3 -11 8 -35 11 -54 l6 -33 18 48 c10 26 17 50 14 52 -2
3 -9 -8 -16 -24 l-11 -29 -14 30 c-8 17 -12 21 -8 10z"/>
<path d="M3992 3038 c-16 -16 -15 -50 1 -73 10 -13 21 -16 40 -11 15 3 27 11
27 16 0 6 -8 5 -20 -2 -16 -11 -23 -10 -37 5 -15 14 -16 22 -6 47 13 34 12 35
-5 18z"/>
<path d="M4030 3046 c0 -2 7 -7 16 -10 8 -3 12 -2 9 4 -6 10 -25 14 -25 6z"/>
<path d="M4082 3000 c1 -46 2 -49 7 -20 4 22 12 35 21 35 9 0 17 -13 21 -35 5
-29 7 -31 8 -8 2 38 -8 58 -29 58 -10 0 -21 6 -23 13 -3 6 -5 -13 -5 -43z"/>
<path d="M4273 3000 c0 -30 2 -43 4 -27 2 15 2 39 0 55 -2 15 -4 2 -4 -28z"/>
<path d="M4571 3003 c-1 -47 1 -53 19 -53 28 0 48 44 30 65 -7 8 -18 15 -25
15 -8 0 -16 6 -18 13 -3 6 -6 -12 -6 -40z m39 -13 c0 -20 -5 -30 -15 -30 -10
0 -15 10 -15 30 0 20 5 30 15 30 10 0 15 -10 15 -30z"/>
<path d="M6046 3018 c-21 -30 -20 -51 3 -72 20 -18 61 -14 61 5 0 5 -9 4 -21
-3 -17 -11 -22 -10 -35 6 -8 11 -14 25 -14 31 0 6 6 20 14 31 13 17 17 18 38
5 21 -13 22 -13 9 2 -18 23 -37 21 -55 -5z"/>
<path d="M6132 2985 c1 -47 2 -52 7 -25 8 44 33 47 42 5 5 -22 7 -24 8 -8 2
33 -9 53 -29 53 -10 0 -21 8 -23 18 -3 9 -5 -10 -5 -43z"/>
<path d="M6322 2985 c1 -47 2 -52 7 -25 8 44 33 47 43 5 6 -29 6 -29 5 5 -2
28 -7 36 -24 38 -12 2 -24 11 -26 20 -3 9 -5 -10 -5 -43z"/>
<path d="M4166 3021 c-3 -5 3 -7 14 -4 11 3 20 0 20 -6 0 -6 -6 -11 -12 -11
-9 0 -8 -3 2 -10 11 -7 12 -12 3 -21 -13 -13 -37 -3 -28 12 4 5 1 9 -5 9 -6 0
-10 -8 -8 -17 2 -12 13 -18 31 -19 26 -1 28 1 25 35 -3 35 -28 55 -42 32z"/>
<path d="M4300 3011 c-13 -26 4 -64 27 -59 25 5 40 35 27 56 -16 25 -41 26
-54 3z m45 -22 c0 -15 -7 -25 -17 -27 -13 -3 -18 3 -18 21 0 13 3 27 7 31 13
12 28 -1 28 -25z"/>
<path d="M4383 2990 c0 -25 2 -35 4 -22 2 12 2 32 0 45 -2 12 -4 2 -4 -23z"/>
<path d="M4407 3023 c6 -4 13 -24 16 -43 4 -34 4 -33 3 4 -1 26 -6 41 -16 43
-10 3 -11 2 -3 -4z"/>
<path d="M4456 3023 c-3 -3 -6 -20 -6 -36 0 -20 6 -30 20 -34 11 -3 20 -10 20
-15 0 -5 5 -6 10 -3 6 3 10 25 10 48 0 38 -3 43 -24 45 -13 1 -26 -1 -30 -5z
m39 -23 c8 -24 -1 -40 -21 -40 -9 0 -14 11 -14 30 0 35 25 42 35 10z"/>
<path d="M4647 3024 c-14 -14 -7 -26 8 -14 12 10 19 10 27 2 9 -9 8 -12 -2
-12 -13 0 -13 -2 -1 -9 16 -11 6 -31 -16 -31 -9 0 -13 6 -9 15 3 8 1 15 -5 15
-6 0 -9 -8 -7 -17 2 -12 13 -18 31 -19 26 -1 28 1 25 35 -2 27 -8 37 -23 39
-12 2 -24 0 -28 -4z"/>
<path d="M4721 2986 l2 -41 6 34 c9 49 29 51 34 4 l4 -38 -1 40 c-1 34 -4 40
-23 41 -21 1 -23 -3 -22 -40z"/>
<path d="M6543 2985 c0 -27 2 -38 4 -22 2 15 2 37 0 50 -2 12 -4 0 -4 -28z"/>
<path d="M6216 3001 c-3 -5 3 -7 14 -4 29 8 25 -6 -5 -17 -27 -10 -30 -17 -16
-39 5 -8 16 -11 30 -6 18 5 22 13 19 38 -3 31 -29 49 -42 28z m26 -53 c-6 -6
-16 -7 -23 -3 -9 6 -7 12 7 22 21 15 34 -1 16 -19z"/>
<path d="M6406 3001 c-4 -5 3 -7 15 -4 18 5 20 2 17 -22 -3 -29 -28 -48 -28
-22 0 9 6 18 13 20 7 4 6 6 -4 6 -20 1 -30 -21 -19 -38 5 -8 16 -11 29 -6 18
5 22 13 19 38 -3 31 -29 49 -42 28z"/>
<path d="M6473 2975 c0 -22 2 -30 4 -17 2 12 2 30 0 40 -3 9 -5 -1 -4 -23z"/>
<path d="M6577 3003 c-14 -13 -7 -61 9 -67 20 -8 44 10 44 33 0 30 -35 52 -53
34z m38 -33 c0 -36 -29 -33 -33 3 -3 23 0 28 15 25 12 -2 18 -12 18 -28z"/>
<path d="M6652 2973 c1 -37 1 -37 5 -5 6 45 31 42 36 -5 l4 -38 -1 40 c-1 33
-5 41 -23 43 -21 3 -23 -1 -21 -35z"/>
<path d="M6727 3003 c-4 -3 -7 -19 -7 -34 0 -20 6 -30 23 -35 l22 -8 -25 -7
c-23 -7 -23 -8 5 -6 28 2 30 5 33 50 3 44 1 47 -21 47 -13 0 -27 -3 -30 -7z
m37 -18 c7 -20 -4 -47 -18 -42 -17 6 -20 57 -3 57 8 0 17 -7 21 -15z"/>
<path d="M1987 2943 c-11 -10 -8 -93 3 -93 6 0 10 23 10 50 0 51 -1 55 -13 43z"/>
<path d="M2075 2940 c3 -5 8 -10 11 -10 2 0 4 5 4 10 0 6 -5 10 -11 10 -5 0
-7 -4 -4 -10z"/>
<path d="M2177 2943 c-11 -10 -8 -93 3 -93 6 0 10 23 10 50 0 51 -1 55 -13 43z"/>
<path d="M2390 2900 c0 -27 5 -50 10 -50 6 0 10 23 10 50 0 28 -4 50 -10 50
-5 0 -10 -22 -10 -50z"/>
<path d="M1915 2900 c-8 -26 11 -50 39 -49 19 2 19 2 -2 6 -28 6 -39 28 -22
48 8 9 8 15 2 15 -6 0 -14 -9 -17 -20z"/>
<path d="M2028 2885 c2 -19 6 -35 8 -35 2 0 4 16 4 35 0 19 -4 35 -8 35 -4 0
-6 -16 -4 -35z"/>
<path d="M2096 2905 c-3 -8 -12 -15 -21 -15 -8 0 -15 -9 -15 -20 0 -16 7 -20
30 -20 27 0 30 3 30 29 0 33 -15 49 -24 26z m4 -30 c0 -8 -7 -15 -15 -15 -26
0 -18 20 13 29 1 1 2 -6 2 -14z"/>
<path d="M2218 2885 c2 -19 6 -35 8 -35 2 0 4 16 4 35 0 19 -4 35 -8 35 -4 0
-6 -16 -4 -35z"/>
<path d="M2286 2905 c-3 -8 -12 -15 -21 -15 -8 0 -15 -9 -15 -20 0 -16 7 -20
30 -20 27 0 30 3 30 29 0 33 -15 49 -24 26z m14 -25 c0 -13 -28 -25 -38 -16
-3 4 0 11 8 16 20 13 30 12 30 0z"/>
<path d="M2333 2885 c0 -22 2 -30 4 -17 2 12 2 30 0 40 -3 9 -5 -1 -4 -23z"/>
<path d="M2424 2906 c-11 -29 1 -51 26 -51 19 0 26 6 28 24 2 13 0 27 -5 32
-6 6 -8 -2 -5 -21 4 -26 1 -30 -18 -30 -19 0 -22 4 -18 30 5 32 1 39 -8 16z"/>
<path d="M2500 2885 c0 -19 2 -35 4 -35 2 0 6 16 8 35 2 19 0 35 -4 35 -4 0
-8 -16 -8 -35z"/>
<path d="M2541 2888 c-1 -21 4 -38 9 -38 12 0 12 27 0 55 -7 16 -9 13 -9 -17z"/>
<path d="M2574 2906 c-10 -27 1 -50 26 -57 21 -5 22 -7 8 -14 -9 -4 -23 -3
-30 1 -10 5 -10 4 -2 -5 7 -7 20 -11 30 -9 15 2 20 14 22 51 2 26 -1 47 -6 47
-5 0 -6 -14 -4 -31 4 -26 2 -30 -14 -27 -14 3 -18 12 -17 31 2 29 -4 35 -13
13z"/>
<path d="M4463 2840 c0 -30 2 -43 4 -27 2 15 2 39 0 55 -2 15 -4 2 -4 -28z"/>
<path d="M4505 2880 c-3 -6 1 -7 9 -4 18 7 21 14 7 14 -6 0 -13 -4 -16 -10z"/>
<path d="M3980 2837 c0 -26 3 -47 8 -47 9 0 9 76 -1 86 -4 4 -7 -14 -7 -39z"/>
<path d="M6030 2822 c0 -52 1 -53 28 -50 24 3 27 7 27 38 0 27 -5 36 -20 39
-11 2 -23 8 -27 15 -4 6 -8 -13 -8 -42z m45 -12 c0 -13 -6 -25 -12 -27 -16 -6
-27 21 -19 43 9 23 31 11 31 -16z"/>
<path d="M6298 2860 c-5 -17 3 -90 11 -90 3 0 5 21 4 46 -1 46 -8 65 -15 44z"/>
<path d="M4020 2849 c0 -5 5 -7 10 -4 6 3 10 8 10 11 0 2 -4 4 -10 4 -5 0 -10
-5 -10 -11z"/>
<path d="M4056 2845 c-3 -8 -12 -15 -21 -15 -8 0 -15 -9 -15 -20 0 -16 7 -20
30 -20 27 0 30 3 30 29 0 33 -15 49 -24 26z m4 -30 c0 -8 -7 -15 -15 -15 -26
0 -18 20 13 29 1 1 2 -6 2 -14z"/>
<path d="M4101 2830 c6 -17 9 -40 6 -52 -5 -18 -4 -19 7 -7 16 17 38 80 31 88
-3 3 -8 -5 -12 -17 -6 -25 -23 -30 -23 -8 0 8 -4 17 -10 21 -5 3 -5 -7 1 -25z"/>
<path d="M4200 2825 c0 -19 2 -35 4 -35 2 0 6 16 8 35 2 19 0 35 -4 35 -4 0
-8 -16 -8 -35z"/>
<path d="M4249 2822 c5 -34 6 -35 9 -8 2 16 0 32 -5 37 -5 5 -7 -7 -4 -29z"/>
<path d="M4315 2848 c-5 -5 -19 -15 -30 -23 -25 -17 -9 -38 26 -33 21 3 23 7
19 34 -3 20 -9 28 -15 22z m1 -45 c-3 -3 -13 -2 -23 2 -17 7 -17 8 2 15 19 7
34 -5 21 -17z"/>
<path d="M4353 2846 c18 -45 19 -69 6 -78 -12 -8 -11 -9 1 -5 8 2 23 25 33 51
9 26 13 44 7 41 -5 -3 -10 -13 -10 -21 0 -8 -4 -14 -10 -14 -5 0 -10 6 -10 14
0 8 -5 18 -12 22 -8 5 -9 2 -5 -10z"/>
<path d="M4485 2840 c-4 -12 -1 -27 5 -35 14 -16 50 -20 50 -6 0 5 -9 7 -20 4
-11 -3 -20 0 -20 6 0 6 12 11 26 11 20 0 25 4 20 16 -3 9 -6 18 -6 20 0 2 -4
4 -10 4 -5 0 -7 -7 -4 -15 4 -10 0 -15 -11 -15 -11 0 -15 5 -11 15 3 8 1 15
-4 15 -5 0 -12 -9 -15 -20z"/>
<path d="M4560 2825 c0 -19 5 -35 10 -35 6 0 10 16 10 35 0 19 -4 35 -10 35
-5 0 -10 -16 -10 -35z"/>
<path d="M4608 2825 c2 -19 6 -35 8 -35 2 0 4 16 4 35 0 19 -4 35 -8 35 -4 0
-6 -16 -4 -35z"/>
<path d="M4680 2825 c0 -19 2 -35 4 -35 2 0 6 16 8 35 2 19 0 35 -4 35 -4 0
-8 -16 -8 -35z"/>
<path d="M4718 2825 c2 -19 5 -35 7 -35 2 0 5 16 7 35 2 21 0 35 -7 35 -7 0
-9 -14 -7 -35z"/>
<path d="M4758 2825 c2 -19 6 -35 8 -35 2 0 4 16 4 35 0 19 -4 35 -8 35 -4 0
-6 -16 -4 -35z"/>
<path d="M4793 2830 c2 -30 6 -35 30 -38 25 -3 27 -1 26 35 -1 36 -2 37 -8 8
-3 -17 -13 -30 -21 -30 -8 0 -18 13 -22 30 -6 29 -6 29 -5 -5z"/>
<path d="M6779 2856 c-7 -7 2 -86 10 -86 3 0 6 18 5 40 -1 40 -6 55 -15 46z"/>
<path d="M6115 2839 c-4 -6 -4 -13 -1 -16 3 -4 6 -1 6 5 0 7 7 12 15 12 22 0
18 -18 -5 -25 -11 -3 -20 -15 -20 -26 0 -15 6 -19 30 -17 25 2 30 7 30 28 0
40 -38 67 -55 39z m35 -44 c0 -8 -7 -15 -15 -15 -16 0 -20 12 -8 23 11 12 23
8 23 -8z"/>
<path d="M6193 2843 c-15 -6 -18 -73 -3 -73 6 0 10 16 10 35 0 50 27 48 33 -2
l4 -38 -1 40 c-1 40 -14 51 -43 38z"/>
<path d="M6345 2840 c-4 -6 -4 -14 -1 -17 3 -4 6 -1 6 5 0 7 7 12 15 12 23 0
18 -16 -11 -29 -33 -15 -26 -36 13 -38 29 -1 29 0 24 35 -6 37 -32 55 -46 32z
m35 -39 c0 -12 -20 -25 -27 -18 -7 7 6 27 18 27 5 0 9 -4 9 -9z"/>
<path d="M6418 2825 c3 -16 7 -42 7 -57 0 -36 10 -26 29 29 17 51 13 74 -5 27
l-11 -29 -13 30 -14 30 7 -30z"/>
<path d="M6563 2843 c-15 -6 -18 -73 -3 -73 6 0 10 16 10 36 0 46 22 41 32 -7
6 -34 6 -34 5 6 -2 40 -15 51 -44 38z"/>
<path d="M6627 2843 c6 -4 13 -24 16 -43 4 -34 4 -33 3 4 -1 26 -6 41 -16 43
-10 3 -11 2 -3 -4z"/>
<path d="M6673 2810 c0 -25 2 -35 4 -22 2 12 2 32 0 45 -2 12 -4 2 -4 -23z"/>
<path d="M6707 2843 c-13 -12 -7 -64 7 -69 8 -3 23 -1 33 6 16 10 16 10 -4 5
-12 -3 -24 -1 -28 5 -4 6 4 10 19 10 28 0 34 18 14 38 -13 13 -31 16 -41 5z
m41 -21 c2 -7 -6 -12 -17 -12 -21 0 -27 11 -14 24 9 9 26 2 31 -12z"/>
<path d="M1922 2735 c1 -34 2 -40 5 -17 3 19 10 32 19 32 17 0 19 -41 2 -58
-9 -9 -9 -12 0 -12 7 0 17 11 24 25 12 26 -2 55 -27 55 -8 0 -16 6 -18 13 -3
6 -5 -10 -5 -38z"/>
<path d="M2180 2747 c0 -41 8 -67 22 -67 5 0 5 6 -1 17 -5 10 -5 26 -1 39 6
16 5 26 -6 34 -12 11 -14 7 -14 -23z"/>
<path d="M1996 2752 c-3 -5 5 -7 17 -5 20 4 23 0 22 -24 0 -18 -6 -29 -17 -31
-21 -4 -25 24 -5 31 9 4 9 6 -1 6 -17 1 -27 -28 -14 -41 5 -5 20 -7 32 -3 30
10 25 69 -7 73 -11 2 -24 -1 -27 -6z"/>
<path d="M2071 2715 l2 -40 6 34 c8 45 31 54 31 12 0 -17 5 -31 11 -31 7 0 9
9 5 23 -3 12 -6 28 -6 34 0 7 -11 12 -25 11 -22 -2 -25 -6 -24 -43z"/>
<path d="M2226 2752 c-3 -6 3 -8 14 -5 19 5 25 -7 21 -44 -1 -6 3 -15 9 -18 8
-5 10 6 8 31 -2 31 -7 40 -25 42 -11 2 -24 -1 -27 -6z"/>
<path d="M2305 2721 c10 -28 10 -42 2 -50 -8 -8 -8 -11 0 -11 6 0 18 18 27 40
19 48 20 78 1 35 l-13 -30 -11 28 c-16 42 -22 32 -6 -12z"/>
<path d="M2401 2753 c-1 -19 18 -63 27 -63 5 0 13 16 19 35 13 41 7 47 -8 8
l-11 -28 -13 30 c-7 17 -14 25 -14 18z"/>
<path d="M2477 2753 c-4 -3 -7 -19 -7 -34 0 -27 22 -45 42 -33 16 10 26 48 16
62 -11 13 -40 16 -51 5z m38 -33 c0 -36 -29 -33 -33 3 -3 23 0 28 15 25 12 -2
18 -12 18 -28z"/>
<path d="M2563 2720 c0 -25 2 -35 4 -22 2 12 2 32 0 45 -2 12 -4 2 -4 -23z"/>
<path d="M2630 2745 c7 -8 9 -23 4 -37 -6 -20 -5 -21 8 -10 13 10 17 10 22 -4
4 -9 9 -14 13 -11 3 4 0 14 -7 23 -12 13 -12 19 0 37 12 21 12 21 -5 7 -14
-11 -19 -12 -22 -2 -3 6 -9 12 -15 12 -6 0 -6 -6 2 -15z"/>
<path d="M2695 2750 c-4 -7 2 -9 19 -4 33 8 34 -4 1 -16 -42 -16 -27 -58 16
-45 29 10 23 69 -8 73 -11 2 -24 -2 -28 -8z m43 -42 c-3 -7 -11 -13 -18 -13
-7 0 -15 6 -17 13 -3 7 4 12 17 12 13 0 20 -5 18 -12z"/>
<path d="M2224 2715 c-7 -17 3 -35 19 -34 9 0 9 2 0 6 -7 2 -13 11 -13 18 0 7
6 16 13 18 9 4 9 6 -1 6 -7 1 -15 -6 -18 -14z"/>
<path d="M3981 2680 c-1 -48 2 -56 18 -57 44 -3 57 69 14 75 -12 2 -24 11 -26
20 -3 9 -5 -8 -6 -38z m44 -20 c0 -13 -6 -25 -12 -27 -16 -6 -27 21 -19 43 9
23 31 11 31 -16z"/>
<path d="M4249 2709 c-2 -29 3 -74 9 -81 4 -4 6 13 5 38 -1 43 -12 74 -14 43z"/>
<path d="M4472 2675 c0 -32 2 -43 7 -31 7 18 8 18 24 -5 19 -26 23 -19 6 12
-7 15 -7 24 2 35 7 9 8 14 1 14 -6 0 -14 -6 -18 -12 -6 -9 -10 -5 -15 12 -5
18 -7 11 -7 -25z"/>
<path d="M6300 2660 c0 -29 2 -51 5 -48 8 7 9 87 2 95 -4 3 -7 -18 -7 -47z"/>
<path d="M6662 2660 c0 -30 2 -47 5 -37 6 22 19 22 27 1 4 -9 9 -14 13 -11 3
4 0 13 -7 22 -10 12 -10 18 0 30 8 9 9 15 2 15 -6 0 -14 -6 -19 -12 -5 -9 -10
-3 -14 17 -5 22 -7 16 -7 -25z"/>
<path d="M6750 2700 c18 -12 30 -13 30 -2 0 4 -10 9 -22 9 -18 2 -20 0 -8 -7z"/>
<path d="M4066 2691 c-4 -5 4 -7 16 -3 14 3 19 2 14 -6 -4 -7 -13 -12 -21 -12
-18 0 -26 -26 -11 -39 6 -6 21 -8 32 -5 27 7 22 74 -7 74 -10 0 -20 -4 -23 -9z
m31 -46 c-4 -8 -11 -15 -17 -15 -14 0 -13 27 3 33 16 6 21 1 14 -18z"/>
<path d="M4130 2666 c0 -20 5 -36 10 -36 6 0 10 14 10 30 0 42 28 40 33 -2 4
-33 4 -33 3 2 -1 30 -5 35 -28 38 -26 3 -28 1 -28 -32z"/>
<path d="M4296 2691 c-3 -5 3 -7 14 -4 29 8 25 -6 -5 -17 -42 -16 -27 -58 16
-45 16 5 19 14 17 38 -3 31 -29 49 -42 28z m26 -53 c-11 -11 -32 -3 -32 12 0
12 34 18 39 7 2 -5 -1 -13 -7 -19z"/>
<path d="M4361 2696 c-1 -5 4 -25 11 -43 10 -29 10 -36 -2 -43 -10 -6 -11 -10
-3 -10 7 0 17 9 23 19 11 22 14 48 3 37 -4 -3 -12 6 -19 21 -7 16 -13 24 -13
19z"/>
<path d="M4400 2685 c0 -8 2 -15 4 -15 2 0 6 7 10 15 3 8 1 15 -4 15 -6 0 -10
-7 -10 -15z"/>
<path d="M4530 2665 c0 -19 5 -35 10 -35 6 0 10 16 10 35 0 19 -4 35 -10 35
-5 0 -10 -16 -10 -35z"/>
<path d="M4570 2692 c0 -6 9 -8 20 -5 29 8 25 -6 -5 -17 -42 -16 -27 -58 16
-45 30 10 23 69 -8 73 -13 2 -23 -1 -23 -6z m32 -54 c-11 -11 -32 -3 -32 12 0
12 34 18 39 7 2 -5 -1 -13 -7 -19z"/>
<path d="M6030 2643 c0 -43 5 -41 13 5 4 18 2 32 -3 32 -6 0 -10 -16 -10 -37z"/>
<path d="M6070 2645 c0 -19 4 -35 9 -35 5 0 11 16 13 35 3 24 0 35 -9 35 -8 0
-13 -13 -13 -35z"/>
<path d="M6119 2642 c5 -34 6 -35 9 -8 2 16 0 32 -5 37 -5 5 -7 -7 -4 -29z"/>
<path d="M6150 2669 c0 -5 5 -7 10 -4 6 3 10 8 10 11 0 2 -4 4 -10 4 -5 0 -10
-5 -10 -11z"/>
<path d="M6184 2671 c3 -4 -6 -13 -19 -19 -26 -12 -32 -27 -15 -37 6 -3 10 0
10 8 0 8 7 18 16 21 13 5 15 2 11 -14 -3 -11 -1 -20 4 -20 5 0 9 16 9 35 0 19
-5 35 -11 35 -5 0 -8 -4 -5 -9z"/>
<path d="M6220 2643 c0 -43 5 -41 13 5 4 18 2 32 -3 32 -6 0 -10 -16 -10 -37z"/>
<path d="M6269 2642 c5 -34 6 -35 9 -8 2 16 0 32 -5 37 -5 5 -7 -7 -4 -29z"/>
<path d="M6340 2651 c4 -16 6 -32 2 -35 -3 -3 0 -6 6 -6 13 0 16 28 6 54 -11
28 -23 17 -14 -13z"/>
<path d="M6414 2666 c-9 -23 -1 -49 16 -53 12 -4 13 -3 1 5 -8 6 -12 20 -9 36
6 28 1 35 -8 12z"/>
<path d="M6516 2665 c-3 -8 -12 -15 -21 -15 -8 0 -15 -9 -15 -20 0 -11 4 -20
10 -20 5 0 7 6 4 14 -3 7 2 16 12 20 13 5 15 2 11 -14 -3 -13 0 -20 9 -20 9 0
14 11 14 29 0 33 -15 49 -24 26z"/>
<path d="M6554 2666 c-9 -22 -1 -49 16 -54 13 -5 13 -3 1 12 -12 14 -12 22 -3
37 8 12 8 19 2 19 -6 0 -13 -6 -16 -14z"/>
<path d="M6737 2673 c-11 -10 -8 -51 3 -58 6 -3 7 1 4 9 -5 12 0 16 20 16 28
0 32 7 15 30 -9 13 -10 12 -5 -2 4 -13 0 -18 -15 -18 -15 0 -19 5 -15 15 6 16
3 19 -7 8z"/>
<path d="M1991 2570 c1 -47 3 -50 8 -20 4 22 12 35 21 35 9 0 18 -13 22 -35
l6 -35 -1 40 c-2 31 -6 41 -22 44 -11 2 -23 8 -27 15 -4 6 -7 -14 -7 -44z"/>
<path d="M1922 2550 c0 -30 2 -49 5 -42 2 6 11 12 18 12 23 0 38 37 25 60 -6
11 -16 20 -23 19 -9 0 -9 -2 1 -6 17 -7 16 -63 -2 -63 -10 0 -16 13 -19 38 -3
27 -4 22 -5 -18z"/>
<path d="M2070 2581 c-13 -26 4 -64 27 -59 25 5 40 35 27 56 -16 25 -41 26
-54 3z m45 -21 c0 -16 -6 -26 -17 -28 -14 -3 -18 3 -18 28 0 25 4 31 18 28 11
-2 17 -12 17 -28z"/>
<path d="M2147 2593 c-11 -10 -8 -61 3 -68 6 -4 10 10 10 34 0 42 -2 46 -13
34z"/>
<path d="M2177 2593 c6 -4 13 -24 16 -43 4 -34 4 -33 3 4 -1 26 -6 41 -16 43
-10 3 -11 2 -3 -4z"/>
<path d="M2226 2593 c-3 -3 -6 -20 -6 -36 0 -20 6 -30 20 -34 11 -3 20 -10 20
-15 0 -5 5 -6 10 -3 6 3 10 25 10 48 0 38 -3 43 -24 45 -13 1 -26 -1 -30 -5z
m38 -18 c8 -21 -3 -45 -20 -45 -8 0 -14 10 -14 23 0 36 22 51 34 22z"/>
<path d="M6031 2483 l1 -38 9 33 c12 41 32 37 41 -9 6 -34 6 -34 5 6 -2 36 -5
40 -29 43 -26 3 -28 1 -27 -35z"/>
<path d="M6112 2503 c-13 -24 3 -63 25 -64 12 -1 10 -3 -7 -9 -22 -7 -23 -8
-4 -9 30 -1 46 22 42 61 -2 25 -8 34 -25 36 -13 2 -25 -4 -31 -15z m38 -23 c0
-33 -24 -42 -32 -12 -7 24 1 42 18 42 9 0 14 -11 14 -30z"/>
<path d="M6187 2514 c-24 -25 7 -82 39 -70 24 9 15 70 -11 74 -12 2 -24 0 -28
-4z m43 -34 c0 -20 -5 -30 -15 -30 -18 0 -30 24 -21 45 10 28 36 17 36 -15z"/>
<path d="M6261 2475 l2 -40 6 35 c8 44 33 47 42 5 6 -27 7 -27 8 -5 1 34 -11
49 -37 47 -19 -1 -22 -7 -21 -42z"/>
<path d="M1902 1998 c-16 -16 -15 -50 1 -73 10 -13 21 -16 40 -11 15 3 27 11
27 16 0 6 -8 5 -20 -2 -28 -18 -55 10 -46 47 6 23 11 27 36 23 16 -2 27 -1 24
4 -8 12 -48 10 -62 -4z"/>
<path d="M1991 1960 c1 -46 3 -50 8 -21 8 45 31 54 31 12 0 -16 5 -33 11 -36
7 -5 9 4 7 25 -2 20 -11 37 -23 44 -11 6 -23 16 -27 21 -4 6 -7 -15 -7 -45z"/>
<path d="M3982 1998 c-7 -7 -12 -24 -12 -38 0 -47 43 -67 71 -33 13 15 12 15
-7 3 -33 -20 -56 -6 -52 32 3 28 7 33 30 33 14 -1 24 3 22 7 -8 12 -38 10 -52
-4z"/>
<path d="M4072 1960 c1 -43 2 -46 5 -17 3 23 9 37 18 37 9 0 15 -14 18 -37 l4
-38 1 38 c2 28 -3 39 -15 44 -10 4 -21 11 -25 17 -4 6 -7 -14 -6 -44z"/>
<path d="M2069 1974 c-13 -16 -12 -16 8 -3 12 7 26 9 30 5 4 -5 3 -11 -3 -13
-49 -17 -54 -53 -8 -53 23 0 25 3 22 37 -3 42 -26 55 -49 27z m41 -34 c0 -13
-28 -25 -38 -16 -3 4 0 11 8 16 20 13 30 12 30 0z"/>
<path d="M2193 1983 c-8 -3 -12 -20 -12 -41 l2 -37 6 34 c9 49 31 52 32 4 1
-39 3 -38 13 10 9 39 26 34 26 -8 0 -19 5 -35 10 -35 12 0 13 50 2 66 -7 11
-57 16 -79 7z"/>
<path d="M2338 1958 c-4 -43 -26 -48 -31 -6 l-4 33 -1 -37 c-2 -35 0 -38 23
-36 22 2 25 7 25 40 0 46 -8 50 -12 6z"/>
<path d="M2411 1968 c-11 -29 4 -58 29 -58 11 0 20 4 20 9 0 5 -9 7 -20 4 -17
-5 -20 0 -20 27 0 27 3 32 20 27 11 -3 18 -1 14 4 -10 17 -35 9 -43 -13z"/>
<path d="M2485 1980 c-4 -6 -4 -14 -1 -17 3 -4 6 -1 6 5 0 7 7 12 15 12 23 0
18 -16 -11 -29 -33 -15 -26 -36 13 -38 29 -1 29 0 24 35 -6 37 -32 55 -46 32z
m35 -39 c0 -14 -18 -23 -31 -15 -8 4 -7 9 2 15 18 11 29 11 29 0z"/>
<path d="M2562 1981 c-8 -5 -12 -21 -10 -37 2 -22 8 -29 26 -30 20 -2 20 -1 2
3 -28 6 -25 59 3 57 9 -1 17 2 17 7 0 11 -21 11 -38 0z"/>
<path d="M4149 1973 c-13 -17 -13 -17 4 -4 13 10 21 11 29 3 8 -8 4 -13 -16
-18 -36 -9 -31 -39 7 -40 26 -1 28 1 25 35 -3 41 -27 52 -49 24z m41 -33 c0
-13 -28 -25 -38 -16 -3 4 0 11 8 16 20 13 30 12 30 0z"/>
<path d="M4287 1983 c6 -4 13 -24 16 -43 4 -34 4 -33 3 4 -1 26 -6 41 -16 43
-10 3 -11 2 -3 -4z"/>
<path d="M4340 1975 c-19 -23 -8 -58 20 -66 21 -5 22 -7 8 -14 -9 -4 -23 -3
-30 1 -11 6 -11 4 0 -7 22 -24 47 2 50 52 3 38 0 45 -17 46 -11 1 -25 -5 -31
-12z m35 -26 c0 -15 -7 -25 -17 -27 -13 -3 -18 3 -18 21 0 13 3 27 7 31 13 12
28 -1 28 -25z"/>
<path d="M4410 1971 c-13 -26 4 -64 27 -59 25 5 40 35 27 56 -16 25 -41 26
-54 3z m45 -22 c0 -15 -7 -25 -17 -27 -13 -3 -18 3 -18 21 0 13 3 27 7 31 13
12 28 -1 28 -25z"/>
<path d="M4517 1979 c6 -8 13 -27 16 -44 4 -23 4 -20 3 9 -1 25 -6 41 -16 44
-12 4 -13 2 -3 -9z"/>
<path d="M6086 1974 c-30 -29 -10 -94 28 -94 14 0 36 20 36 34 0 5 -6 1 -14
-10 -12 -15 -18 -17 -33 -8 -24 15 -28 57 -8 74 14 12 20 12 38 0 20 -12 21
-12 8 3 -17 21 -35 22 -55 1z"/>
<path d="M6455 1980 c-3 -5 1 -10 10 -10 9 0 13 5 10 10 -3 6 -8 10 -10 10 -2
0 -7 -4 -10 -10z"/>
<path d="M6805 1980 c-3 -5 -1 -10 4 -10 6 0 11 5 11 10 0 6 -2 10 -4 10 -3 0
-8 -4 -11 -10z"/>
<path d="M4263 1945 c0 -22 2 -30 4 -17 2 12 2 30 0 40 -3 9 -5 -1 -4 -23z"/>
<path d="M4480 1945 c0 -19 5 -35 10 -35 6 0 10 16 10 35 0 19 -4 35 -10 35
-5 0 -10 -16 -10 -35z"/>
<path d="M6171 1935 c1 -41 3 -44 8 -20 3 17 13 30 21 30 8 0 18 -13 22 -30 6
-29 6 -29 5 5 -2 26 -7 36 -22 39 -11 2 -23 8 -27 15 -4 6 -7 -11 -7 -39z"/>
<path d="M6395 1971 c19 -8 18 -9 -5 -12 -20 -3 -26 -11 -28 -35 -2 -21 2 -33
12 -37 31 -12 46 3 46 49 0 39 -2 44 -22 43 -22 0 -22 -1 -3 -8z m12 -41 c4
-21 -13 -44 -26 -36 -6 4 -11 18 -11 32 0 19 5 25 17 22 10 -2 19 -10 20 -18z"/>
<path d="M6256 1951 c-4 -5 3 -7 14 -4 29 8 25 -6 -5 -17 -28 -11 -31 -22 -11
-39 23 -19 46 -2 46 35 0 27 -4 34 -19 34 -11 0 -22 -4 -25 -9z m26 -53 c-6
-6 -16 -7 -23 -3 -9 6 -7 12 7 22 21 15 34 -1 16 -19z"/>
<path d="M6446 1951 c-3 -5 3 -7 14 -4 29 8 25 -6 -5 -17 -27 -10 -30 -17 -16
-39 5 -8 16 -11 30 -6 18 5 22 13 19 38 -3 31 -29 49 -42 28z m26 -53 c-6 -6
-16 -7 -23 -3 -9 6 -7 12 7 22 21 15 34 -1 16 -19z"/>
<path d="M6511 1938 c-1 -32 8 -58 21 -58 7 0 7 4 0 13 -6 6 -12 26 -15 42 -4
29 -4 29 -6 3z"/>
<path d="M6558 1925 c-2 -19 0 -35 4 -35 4 0 8 16 8 35 0 19 -2 35 -4 35 -2 0
-6 -16 -8 -35z"/>
<path d="M6633 1920 c0 -25 2 -35 4 -22 2 12 2 32 0 45 -2 12 -4 2 -4 -23z"/>
<path d="M6657 1953 c6 -4 13 -22 16 -38 4 -27 5 -27 3 4 0 21 -7 36 -16 38
-10 3 -11 2 -3 -4z"/>
<path d="M6707 1953 c-14 -14 -6 -52 14 -67 20 -13 20 -14 2 -19 -12 -4 -9 -5
7 -4 22 2 25 7 28 50 3 44 1 47 -21 47 -13 0 -27 -3 -30 -7z m38 -33 c0 -27
-22 -39 -31 -16 -8 22 3 49 19 43 6 -2 12 -14 12 -27z"/>
<path d="M6782 1944 c-20 -36 15 -77 44 -53 17 14 18 41 2 57 -17 17 -35 15
-46 -4z m45 -14 c4 -21 -13 -44 -26 -36 -6 4 -11 18 -11 32 0 19 5 25 17 22
10 -2 19 -10 20 -18z"/>
<path d="M6850 1926 c0 -20 5 -36 10 -36 6 0 10 14 10 30 0 39 27 41 33 3 4
-26 4 -26 3 2 -1 25 -6 31 -28 33 -26 3 -28 1 -28 -32z"/>
<path d="M4276 1845 c4 -8 8 -15 10 -15 2 0 4 7 4 15 0 8 -4 15 -10 15 -5 0
-7 -7 -4 -15z"/>
<path d="M2070 1839 c0 -5 5 -7 10 -4 6 3 10 8 10 11 0 2 -4 4 -10 4 -5 0 -10
-5 -10 -11z"/>
<path d="M2545 1840 c3 -5 8 -10 11 -10 2 0 4 5 4 10 0 6 -5 10 -11 10 -5 0
-7 -4 -4 -10z"/>
<path d="M2237 1833 c-3 -5 -1 -26 3 -48 l8 -40 1 48 c1 45 -2 56 -12 40z"/>
<path d="M4438 1828 c-2 -7 -1 -29 3 -48 6 -34 6 -33 8 13 1 46 -3 59 -11 35z"/>
<path d="M6385 1820 c3 -5 8 -10 11 -10 2 0 4 5 4 10 0 6 -5 10 -11 10 -5 0
-7 -4 -4 -10z"/>
<path d="M1891 1783 c1 -36 2 -37 8 -8 8 40 38 46 44 8 4 -28 4 -28 3 2 -1 25
-6 31 -28 33 -26 3 -28 1 -27 -35z"/>
<path d="M1965 1801 c-6 -21 3 -51 17 -51 5 0 5 7 -1 17 -6 11 -6 24 0 35 6
12 6 18 0 18 -5 0 -12 -8 -16 -19z"/>
<path d="M2007 1774 c2 -41 0 -45 -18 -41 -10 3 -19 1 -19 -5 0 -5 10 -8 23
-6 19 3 22 10 25 51 2 26 -1 47 -5 47 -4 0 -7 -21 -6 -46z"/>
<path d="M2044 1806 c-8 -22 -1 -49 14 -52 7 -1 8 0 2 3 -14 7 -13 50 3 56 9
4 9 6 -1 6 -7 1 -15 -5 -18 -13z"/>
<path d="M2085 1785 c0 -18 3 -31 8 -28 4 2 7 15 7 28 0 13 -3 26 -7 28 -5 3
-8 -10 -8 -28z"/>
<path d="M2120 1785 c0 -19 2 -35 4 -35 2 0 6 16 8 35 2 19 0 35 -4 35 -4 0
-8 -16 -8 -35z"/>
<path d="M2158 1808 c7 -7 12 -23 13 -37 0 -15 3 -20 6 -13 7 19 -6 62 -19 62
-9 0 -9 -3 0 -12z"/>
<path d="M2306 1805 c-3 -8 -12 -15 -21 -15 -8 0 -15 -9 -15 -20 0 -11 5 -20
11 -20 5 0 7 5 3 11 -7 13 15 31 29 22 4 -2 3 -11 -4 -19 -9 -11 -8 -14 5 -14
11 0 16 9 16 29 0 33 -15 49 -24 26z"/>
<path d="M2351 1813 c-1 -6 4 -24 9 -39 7 -19 7 -30 -1 -40 -7 -8 -7 -14 -2
-14 6 0 18 19 27 43 20 52 20 71 1 37 l-14 -25 -10 25 c-5 14 -10 20 -10 13z"/>
<path d="M2450 1785 c0 -19 4 -35 9 -35 5 0 11 16 13 35 3 24 0 35 -9 35 -8 0
-13 -13 -13 -35z"/>
<path d="M2499 1782 c5 -34 6 -35 9 -8 2 16 0 32 -5 37 -5 5 -7 -7 -4 -29z"/>
<path d="M2566 1805 c-3 -8 -12 -15 -21 -15 -8 0 -15 -9 -15 -20 0 -11 4 -20
10 -20 5 0 7 6 4 14 -3 7 2 16 12 20 13 5 15 2 11 -14 -3 -13 0 -20 9 -20 9 0
14 11 14 29 0 33 -15 49 -24 26z"/>
<path d="M2611 1790 c6 -17 9 -40 6 -52 -5 -18 -4 -19 7 -7 16 17 38 80 31 88
-3 3 -8 -5 -12 -17 -6 -25 -23 -30 -23 -8 0 8 -4 17 -10 21 -5 3 -5 -7 1 -25z"/>
<path d="M3965 1801 c-7 -22 3 -51 17 -51 6 0 5 7 -3 16 -10 12 -10 20 -1 35
7 10 8 19 3 19 -5 0 -12 -8 -16 -19z"/>
<path d="M4035 1810 c-3 -5 -1 -10 4 -10 6 0 11 5 11 10 0 6 -2 10 -4 10 -3 0
-8 -4 -11 -10z"/>
<path d="M4074 1811 c3 -4 -6 -13 -19 -19 -26 -12 -32 -27 -15 -37 5 -3 7 0 4
8 -3 9 3 17 16 20 18 5 21 2 17 -14 -3 -10 -1 -19 4 -19 5 0 9 16 9 35 0 19
-5 35 -11 35 -5 0 -8 -4 -5 -9z"/>
<path d="M4113 1785 c0 -22 2 -30 4 -17 2 12 2 30 0 40 -3 9 -5 -1 -4 -23z"/>
<path d="M4182 1808 c-15 -15 -15 -33 1 -46 9 -8 12 -2 12 24 0 19 0 34 0 34
-1 0 -6 -5 -13 -12z"/>
<path d="M4250 1785 c0 -19 4 -35 8 -35 4 0 6 16 4 35 -2 19 -6 35 -8 35 -2 0
-4 -16 -4 -35z"/>
<path d="M4288 1785 c-2 -19 0 -35 4 -35 4 0 8 16 8 35 0 19 -2 35 -4 35 -2 0
-6 -16 -8 -35z"/>
<path d="M4356 1805 c-3 -8 -12 -15 -21 -15 -8 0 -15 -9 -15 -20 0 -11 5 -20
11 -20 5 0 7 5 3 11 -7 13 15 31 29 22 4 -2 3 -11 -4 -19 -9 -11 -8 -14 5 -14
11 0 16 9 16 29 0 33 -15 49 -24 26z"/>
<path d="M4513 1813 c4 -6 -5 -15 -18 -21 -25 -11 -35 -42 -14 -42 5 0 7 5 3
11 -3 6 0 15 7 20 23 14 32 10 26 -11 -3 -11 -1 -20 4 -20 13 0 11 58 -3 66
-6 4 -8 3 -5 -3z"/>
<path d="M4550 1814 c0 -6 5 -26 11 -44 9 -26 9 -34 -2 -41 -10 -6 -11 -9 -1
-9 13 0 28 31 37 78 l5 27 -10 -25 -11 -25 -14 25 c-8 14 -14 20 -15 14z"/>
<path d="M6550 1773 c0 -45 3 -53 19 -53 42 0 54 53 16 74 -11 6 -23 16 -27
21 -4 6 -8 -14 -8 -42z m45 -14 c0 -15 -7 -25 -17 -27 -13 -3 -18 3 -18 21 0
13 3 27 7 31 13 12 28 -1 28 -25z"/>
<path d="M6072 1769 c2 -27 8 -44 18 -46 12 -4 13 -3 1 5 -9 6 -12 21 -9 41 3
18 1 34 -4 37 -5 3 -8 -13 -6 -37z"/>
<path d="M6115 1789 c-4 -6 -4 -13 -1 -16 3 -4 6 -1 6 5 0 7 7 12 15 12 22 0
18 -18 -5 -25 -11 -3 -20 -15 -20 -26 0 -15 6 -19 30 -17 24 2 30 7 30 24 0
12 -3 29 -6 38 -7 18 -39 21 -49 5z m35 -44 c0 -8 -7 -15 -15 -15 -16 0 -20
12 -8 23 11 12 23 8 23 -8z"/>
<path d="M6182 1800 c-1 -3 5 -27 12 -54 l13 -50 16 49 c10 27 15 50 12 53 -2
2 -7 -7 -11 -22 -8 -33 -17 -33 -31 2 -6 15 -11 25 -11 22z"/>
<path d="M6294 1786 c-11 -30 0 -61 24 -62 18 -1 19 -1 2 3 -15 3 -20 12 -20
35 0 25 3 29 20 25 11 -3 20 -1 20 4 0 15 -40 10 -46 -5z"/>
<path d="M6364 1760 c1 -30 4 -35 26 -35 21 0 26 5 28 33 2 18 -1 32 -7 32 -6
0 -11 -13 -11 -30 0 -42 -28 -40 -33 3 -4 32 -4 32 -3 -3z"/>
<path d="M6439 1784 c-13 -16 -12 -16 8 -3 12 7 26 10 30 6 4 -5 1 -12 -6 -16
-11 -7 -11 -9 0 -13 16 -5 3 -28 -18 -28 -9 0 -13 6 -9 15 3 8 1 15 -5 15 -6
0 -9 -8 -7 -17 2 -12 13 -18 31 -19 26 -1 28 1 25 35 -3 41 -26 52 -49 25z"/>
<path d="M6629 1784 c-13 -16 -12 -16 8 -3 12 7 26 10 30 6 4 -5 1 -12 -6 -16
-11 -7 -11 -9 0 -14 11 -3 11 -7 2 -17 -12 -13 -37 -4 -28 11 4 5 1 9 -5 9 -6
0 -10 -8 -8 -17 2 -12 13 -18 31 -19 26 -1 28 1 25 35 -3 41 -26 52 -49 25z"/>
<path d="M6701 1755 l2 -40 6 34 c8 45 31 54 31 12 0 -16 5 -33 10 -36 12 -7
13 44 2 62 -4 7 -18 11 -30 10 -19 -1 -22 -7 -21 -42z"/>
<path d="M6817 1793 c-11 -10 -8 -61 3 -68 6 -4 10 10 10 34 0 42 -2 46 -13
34z"/>
<path d="M6847 1793 c6 -4 13 -24 16 -43 4 -34 4 -33 3 4 -1 26 -6 41 -16 43
-10 3 -11 2 -3 -4z"/>
<path d="M6897 1794 c-4 -4 -7 -12 -7 -18 0 -6 5 -5 12 2 14 14 28 16 28 3 0
-5 -9 -13 -21 -16 -30 -10 -20 -40 14 -41 26 -1 28 1 25 35 -2 27 -8 37 -23
39 -12 2 -24 0 -28 -4z m37 -49 c-6 -16 -34 -21 -34 -7 0 13 11 22 26 22 8 0
11 -6 8 -15z"/>
<path d="M6974 1749 l11 -52 17 39 c10 21 17 46 17 54 0 8 -7 2 -14 -15 l-13
-30 -11 28 c-16 41 -19 33 -7 -24z"/>
<path d="M1945 1680 c-3 -5 -1 -10 4 -10 6 0 11 5 11 10 0 6 -2 10 -4 10 -3 0
-8 -4 -11 -10z"/>
<path d="M4275 1680 c-3 -5 1 -10 10 -10 9 0 13 5 10 10 -3 6 -8 10 -10 10 -2
0 -7 -4 -10 -10z"/>
<path d="M1893 1630 c0 -30 2 -43 4 -27 2 15 2 39 0 55 -2 15 -4 2 -4 -28z"/>
<path d="M2248 1673 c7 -3 16 -2 19 1 4 3 -2 6 -13 5 -11 0 -14 -3 -6 -6z"/>
<path d="M2300 1637 c0 -25 3 -48 8 -50 8 -6 7 82 -2 90 -3 4 -6 -14 -6 -40z"/>
<path d="M4220 1635 c0 -25 5 -45 10 -45 6 0 10 20 10 45 0 25 -4 45 -10 45
-5 0 -10 -20 -10 -45z"/>
<path d="M4453 1635 c0 -27 2 -38 4 -22 2 15 2 37 0 50 -2 12 -4 0 -4 -28z"/>
<path d="M1927 1653 c-13 -12 -7 -61 8 -67 19 -7 45 3 45 16 0 6 -6 5 -15 -2
-8 -6 -19 -9 -25 -5 -19 12 -10 25 16 25 20 0 25 4 20 16 -3 9 -6 18 -6 20 0
7 -36 5 -43 -3z m38 -13 c3 -5 -3 -10 -15 -10 -12 0 -18 5 -15 10 3 6 10 10
15 10 5 0 12 -4 15 -10z"/>
<path d="M2002 1623 c1 -37 1 -37 5 -5 3 18 10 32 18 32 8 0 15 -14 18 -32 4
-32 4 -32 5 5 2 33 0 37 -23 37 -23 0 -25 -4 -23 -37z"/>
<path d="M2111 1617 c2 -42 2 -42 8 -8 9 49 31 52 32 4 l2 -38 6 34 c8 45 31
54 31 12 0 -17 5 -31 10 -31 12 0 13 40 2 56 -4 6 -26 12 -49 12 l-43 2 1 -43z"/>
<path d="M2236 1651 c-3 -5 3 -7 14 -4 29 8 25 -6 -6 -17 -35 -14 -29 -45 9
-46 26 -1 28 1 25 35 -3 35 -28 55 -42 32z m34 -40 c0 -14 -18 -23 -30 -16 -6
4 -8 11 -5 16 8 12 35 12 35 0z"/>
<path d="M3972 1618 l1 -43 4 38 c5 47 30 50 36 5 4 -32 4 -32 5 5 2 33 0 37
-23 37 -23 0 -25 -3 -23 -42z"/>
<path d="M4045 1650 c-4 -7 2 -9 19 -4 34 8 34 -4 0 -16 -35 -14 -29 -45 9
-46 26 -1 28 1 25 35 -2 28 -8 37 -25 39 -11 2 -24 -2 -28 -8z m43 -42 c-3 -7
-11 -13 -18 -13 -7 0 -15 6 -17 13 -3 7 4 12 17 12 13 0 20 -5 18 -12z"/>
<path d="M4121 1654 c-1 -6 4 -26 10 -44 9 -26 9 -34 -2 -41 -10 -6 -11 -9 -1
-9 13 0 28 31 37 78 6 26 5 26 -8 -3 l-14 -30 -10 30 c-7 17 -12 25 -12 19z"/>
<path d="M4262 1648 c-16 -16 -15 -43 3 -58 17 -14 45 -7 45 12 0 10 -3 9 -9
-1 -5 -8 -16 -11 -25 -8 -25 10 -19 27 10 27 19 0 25 5 22 17 -4 22 -29 28
-46 11z m38 -8 c0 -5 -9 -10 -21 -10 -11 0 -17 5 -14 10 3 6 13 10 21 10 8 0
14 -4 14 -10z"/>
<path d="M4331 1616 l2 -41 6 35 c8 44 33 47 43 5 6 -29 6 -29 5 5 -2 31 -5
35 -29 36 -26 1 -28 -1 -27 -40z"/>
<path d="M4483 1653 c-17 -6 -16 -48 1 -62 24 -20 47 -2 44 33 -3 30 -19 41
-45 29z m35 -30 c-3 -30 -25 -42 -34 -19 -9 22 2 46 21 46 12 0 15 -8 13 -27z"/>
<path d="M4551 1618 c2 -43 2 -43 8 -9 8 45 31 54 31 12 0 -17 5 -31 10 -31
11 0 13 30 4 54 -3 9 -17 16 -30 16 -22 0 -24 -4 -23 -42z"/>
<path d="M4632 1648 c-7 -7 -12 -20 -12 -29 0 -21 26 -43 40 -34 5 3 10 2 10
-4 0 -5 -8 -11 -17 -14 -14 -3 -13 -4 2 -3 17 1 21 9 23 49 3 40 0 47 -15 47
-11 0 -24 -5 -31 -12z m33 -28 c0 -27 -22 -39 -31 -16 -8 22 3 49 19 43 6 -2
12 -14 12 -27z"/>
<path d="M6073 1610 c0 -30 2 -43 4 -27 2 15 2 39 0 55 -2 15 -4 2 -4 -28z"/>
<path d="M6120 1656 c0 -2 7 -7 16 -10 8 -3 12 -2 9 4 -6 10 -25 14 -25 6z"/>
<path d="M6290 1611 c0 -51 1 -52 28 -49 20 2 28 9 30 27 2 13 0 27 -5 32 -5
5 -9 -3 -8 -18 0 -18 -6 -29 -17 -31 -15 -3 -18 3 -16 37 1 23 -2 44 -5 48 -4
3 -7 -17 -7 -46z"/>
<path d="M6559 1650 c-7 -19 1 -90 10 -90 6 0 5 41 -2 90 -2 13 -3 13 -8 0z"/>
<path d="M6783 1610 c-1 -30 1 -47 4 -37 5 18 5 18 26 0 21 -19 16 -3 -9 27
-7 8 -14 26 -17 40 -2 14 -4 0 -4 -30z"/>
<path d="M6104 1616 c-14 -38 22 -74 48 -48 6 6 0 8 -16 5 -15 -3 -26 -1 -26
6 0 6 11 11 25 11 25 0 35 23 15 35 -6 3 -7 -1 -4 -9 4 -12 0 -16 -16 -16 -16
0 -20 4 -16 15 3 8 3 15 0 15 -2 0 -7 -6 -10 -14z"/>
<path d="M6180 1595 c0 -19 2 -35 4 -35 2 0 6 16 8 35 2 19 0 35 -4 35 -4 0
-8 -16 -8 -35z"/>
<path d="M6218 1595 c2 -19 6 -35 8 -35 2 0 4 16 4 35 0 19 -4 35 -8 35 -4 0
-6 -16 -4 -35z"/>
<path d="M6405 1619 c-5 -5 -19 -16 -29 -23 -24 -16 -13 -36 20 -36 21 0 24 5
24 35 0 38 0 39 -15 24z m1 -46 c-3 -3 -13 -2 -23 2 -17 7 -17 8 2 15 19 7 34
-5 21 -17z"/>
<path d="M6440 1595 c0 -19 5 -35 10 -35 6 0 10 16 10 35 0 19 -4 35 -10 35
-5 0 -10 -16 -10 -35z"/>
<path d="M6489 1592 c5 -34 6 -35 9 -8 2 16 0 32 -5 37 -5 5 -7 -7 -4 -29z"/>
<path d="M6634 1621 c3 -4 -6 -13 -20 -20 -33 -15 -26 -35 12 -39 29 -3 30 -2
26 33 -2 19 -8 35 -14 35 -5 0 -7 -4 -4 -9z m6 -36 c0 -8 -9 -15 -20 -15 -22
0 -27 15 -7 23 21 9 27 7 27 -8z"/>
<path d="M6671 1624 c-1 -6 4 -26 10 -44 9 -26 9 -34 -2 -41 -10 -6 -11 -9 -1
-9 13 0 28 32 37 78 5 27 5 27 -6 -2 l-12 -29 -13 29 c-7 16 -13 24 -13 18z"/>
<path d="M6840 1595 c0 -19 5 -35 10 -35 6 0 10 16 10 35 0 19 -4 35 -10 35
-5 0 -10 -16 -10 -35z"/>
<path d="M6914 1622 c4 -7 -3 -14 -19 -18 -38 -9 -34 -44 5 -44 27 0 30 3 30
29 0 17 -5 33 -12 37 -7 4 -8 3 -4 -4z m6 -32 c0 -13 -28 -25 -38 -16 -3 4 0
11 8 16 20 13 30 12 30 0z"/>
<path d="M2267 1513 c-15 -14 -5 -93 12 -93 7 0 6 89 -1 96 -3 2 -8 1 -11 -3z"/>
<path d="M2483 1470 c-1 -30 1 -47 4 -37 5 21 22 22 29 2 4 -8 10 -15 15 -15
5 0 2 11 -6 24 -11 16 -13 26 -6 31 6 3 11 11 11 17 0 6 -9 3 -19 -6 -19 -17
-20 -17 -24 11 -2 15 -4 3 -4 -27z"/>
<path d="M3970 1473 c0 -45 3 -53 19 -53 42 0 54 53 16 74 -11 6 -23 16 -27
21 -4 6 -8 -14 -8 -42z m45 -3 c8 -24 -1 -40 -21 -40 -8 0 -14 10 -14 23 0 40
24 51 35 17z"/>
<path d="M4234 1506 c-7 -19 4 -86 14 -86 8 0 7 89 -2 97 -3 3 -8 -2 -12 -11z"/>
<path d="M4453 1470 c-1 -30 1 -47 4 -37 5 21 22 22 29 2 4 -8 11 -15 16 -15
6 0 3 11 -6 24 -10 15 -12 27 -6 31 6 3 10 11 10 17 0 6 -9 3 -19 -6 -19 -17
-20 -17 -24 11 -2 15 -4 3 -4 -27z"/>
<path d="M1891 1456 l2 -41 6 35 c4 22 12 35 21 35 9 0 17 -13 21 -35 l6 -35
2 31 c1 34 -13 51 -41 51 -14 0 -18 -9 -17 -41z"/>
<path d="M1968 1475 c-12 -27 2 -55 28 -55 8 0 14 -5 14 -11 0 -7 -9 -9 -21
-6 -16 4 -19 3 -11 -5 23 -23 42 0 42 50 0 41 -3 48 -20 49 -13 1 -25 -7 -32
-22z m40 -18 c2 -18 -1 -27 -11 -27 -18 0 -29 24 -20 45 8 23 28 12 31 -18z"/>
<path d="M2050 1486 c-6 -8 -10 -25 -8 -38 2 -17 10 -23 28 -23 20 0 26 6 28
29 5 40 -25 59 -48 32z m38 -29 c2 -19 -1 -27 -13 -27 -19 0 -30 24 -21 46 9
23 31 11 34 -19z"/>
<path d="M2125 1489 c-4 -6 -4 -13 -1 -16 3 -4 6 -1 6 5 0 7 7 12 15 12 22 0
18 -18 -5 -25 -11 -3 -20 -15 -20 -26 0 -15 6 -19 30 -17 25 2 30 7 30 28 0
40 -38 67 -55 39z m35 -44 c0 -8 -7 -15 -15 -15 -26 0 -18 20 13 29 1 1 2 -6
2 -14z"/>
<path d="M2329 1492 c16 -11 6 -32 -15 -32 -8 0 -14 -9 -14 -20 0 -16 6 -20
30 -18 29 2 31 5 28 38 -2 26 -8 36 -23 38 -15 2 -17 1 -6 -6z m21 -42 c0 -13
-28 -25 -38 -16 -3 4 0 11 8 16 20 13 30 12 30 0z"/>
<path d="M2585 1489 c-4 -6 -4 -13 -1 -16 3 -4 6 -1 6 5 0 7 7 12 15 12 23 0
18 -16 -10 -28 -33 -15 -23 -42 16 -42 23 0 29 5 29 21 0 44 -37 77 -55 48z
m35 -44 c0 -8 -7 -15 -15 -15 -16 0 -20 12 -8 23 11 12 23 8 23 -8z"/>
<path d="M4049 1483 c-13 -17 -13 -17 4 -4 13 10 21 11 29 3 8 -8 4 -13 -16
-18 -36 -9 -31 -38 7 -42 27 -3 28 -2 25 35 -3 43 -26 55 -49 26z m41 -33 c0
-13 -28 -25 -38 -16 -3 4 0 11 8 16 20 13 30 12 30 0z"/>
<path d="M4121 1456 l2 -41 6 34 c8 48 31 53 31 7 0 -20 5 -36 10 -36 14 0 12
56 -2 67 -7 6 -21 10 -30 10 -14 0 -18 -9 -17 -41z"/>
<path d="M4279 1483 c-13 -17 -13 -17 4 -4 13 10 21 11 29 3 8 -8 4 -13 -16
-18 -36 -9 -31 -39 7 -40 26 -1 28 1 25 35 -3 41 -27 52 -49 24z m41 -33 c0
-13 -28 -25 -38 -16 -3 4 0 11 8 16 20 13 30 12 30 0z"/>
<path d="M4557 1493 c-4 -3 -7 -11 -7 -17 0 -6 5 -5 12 2 19 19 25 14 26 -18
0 -21 -4 -30 -15 -30 -9 0 -13 6 -9 15 3 8 1 15 -4 15 -6 0 -10 -9 -10 -20 0
-16 7 -20 30 -20 26 0 30 4 30 28 0 39 -32 67 -53 45z"/>
<path d="M6070 1448 c0 -58 12 -59 14 -1 1 28 6 39 20 41 29 6 42 -14 23 -35
-14 -17 -14 -20 3 -43 20 -25 28 -18 11 9 -6 9 -5 21 2 32 15 24 -7 49 -44 49
-28 0 -29 -1 -29 -52z"/>
<path d="M6883 1450 c0 -30 2 -43 4 -27 2 15 2 39 0 55 -2 15 -4 2 -4 -28z"/>
<path d="M2203 1455 c0 -22 2 -30 4 -17 2 12 2 30 0 40 -3 9 -5 -1 -4 -23z"/>
<path d="M2385 1454 c12 -30 13 -40 3 -52 -11 -13 -11 -14 0 -8 13 8 24 30 36
76 l7 25 -15 -25 -16 -25 -6 23 c-3 12 -10 22 -15 22 -5 0 -2 -16 6 -36z"/>
<path d="M2553 1455 c0 -22 2 -30 4 -17 2 12 2 30 0 40 -3 9 -5 -1 -4 -23z"/>
<path d="M4356 1454 c12 -29 13 -39 2 -52 -11 -13 -11 -14 0 -8 14 8 24 32 36
76 5 20 3 19 -8 -5 l-14 -30 -7 28 c-4 15 -11 27 -16 27 -4 0 -1 -16 7 -36z"/>
<path d="M4523 1455 c0 -22 2 -30 4 -17 2 12 2 30 0 40 -3 9 -5 -1 -4 -23z"/>
<path d="M6592 1445 c1 -36 2 -41 5 -17 6 45 31 42 36 -5 l4 -38 1 38 c2 28
-3 39 -15 44 -10 4 -21 11 -25 17 -4 6 -7 -11 -6 -39z"/>
<path d="M6171 1438 c-1 -41 9 -52 39 -43 15 5 20 15 20 41 0 19 -4 34 -10 34
-5 0 -10 -16 -10 -36 0 -46 -23 -41 -31 7 l-6 34 -2 -37z"/>
<path d="M6266 1462 c-3 -6 3 -8 14 -5 11 3 20 1 20 -5 0 -5 -9 -12 -21 -15
-22 -6 -24 -38 -1 -43 7 -1 8 0 2 3 -18 8 -11 33 10 33 12 0 17 -5 14 -14 -3
-8 0 -17 6 -21 8 -5 10 5 8 31 -2 31 -7 40 -25 42 -11 2 -24 -1 -27 -6z"/>
<path d="M6377 1463 c-13 -12 -7 -24 19 -33 30 -12 22 -34 -9 -24 -17 5 -19 3
-11 -6 15 -15 54 -4 54 17 0 8 -9 17 -20 20 -25 7 -26 20 -2 26 14 4 13 5 -4
6 -11 0 -24 -2 -27 -6z"/>
<path d="M6445 1460 c-4 -7 2 -9 19 -4 33 8 34 -4 1 -16 -42 -16 -27 -58 16
-45 29 10 23 69 -8 73 -11 2 -24 -2 -28 -8z m43 -42 c-3 -7 -11 -13 -18 -13
-7 0 -15 6 -17 13 -3 7 4 12 17 12 13 0 20 -5 18 -12z"/>
<path d="M6527 1463 c-4 -3 -7 -19 -7 -34 0 -28 26 -47 43 -30 6 6 2 9 -9 8
-14 -2 -20 6 -22 27 -3 25 -1 28 17 23 12 -3 21 -1 21 4 0 10 -33 12 -43 2z"/>
<path d="M6707 1430 c9 -23 19 -37 23 -33 13 14 29 73 21 73 -5 0 -12 -12 -16
-27 l-8 -28 -10 28 c-6 15 -14 27 -18 27 -4 0 0 -18 8 -40z"/>
<path d="M6776 1461 c-4 -5 3 -7 15 -4 18 5 20 2 17 -22 -3 -29 -28 -48 -28
-22 0 9 6 18 13 20 7 4 6 6 -4 6 -21 1 -32 -26 -16 -36 7 -4 22 -8 35 -8 23
-1 29 24 16 59 -7 17 -39 22 -48 7z"/>
<path d="M6916 1462 c-3 -6 2 -8 13 -5 12 3 20 -2 23 -14 7 -25 -1 -43 -18
-43 -16 0 -19 26 -4 33 6 3 5 4 -2 3 -7 -2 -13 -11 -13 -22 0 -14 7 -19 28
-20 26 -1 28 1 25 35 -2 28 -8 37 -25 39 -11 2 -24 -1 -27 -6z"/>
<path d="M6994 1436 c1 -26 6 -41 16 -43 10 -3 11 -2 3 4 -6 4 -13 24 -16 43
-4 34 -4 33 -3 -4z"/>
<path d="M7033 1435 c0 -22 2 -30 4 -17 2 12 2 30 0 40 -3 9 -5 -1 -4 -23z"/>
<path d="M6073 1280 c-1 -30 1 -47 4 -37 5 21 22 22 29 2 4 -8 10 -15 16 -15
5 0 2 10 -6 22 -12 16 -13 26 -4 42 11 21 10 21 -10 3 -20 -18 -21 -18 -25 10
-2 15 -4 3 -4 -27z"/>
<path d="M6142 1280 c1 -45 2 -48 7 -21 8 48 31 53 31 7 0 -20 5 -36 10 -36 6
0 10 9 10 21 0 30 -20 61 -35 55 -8 -3 -16 3 -18 12 -3 9 -5 -8 -5 -38z"/>
<path d="M6238 1323 c7 -3 16 -2 19 1 4 3 -2 6 -13 5 -11 0 -14 -3 -6 -6z"/>
<path d="M6222 1298 c-27 -27 0 -77 34 -64 10 4 14 16 12 38 -3 35 -25 47 -46
26z m36 -31 c2 -19 -1 -27 -13 -27 -19 0 -30 24 -21 46 9 23 31 11 34 -19z"/>
</g>
</svg>
